<svg xmlns="http://www.w3.org/2000/svg" width="150.662" height="35" viewBox="0 0 150.662 35">
    <defs>
        <style>
            .cls-1{fill:#fff}.cls-2{fill:#f54703}.cls-3{fill:url(#linear-gradient)}.cls-4{filter:url(#Path_9)}.cls-5{filter:url(#Path_8)}.cls-6{filter:url(#Path_7)}.cls-7{filter:url(#Path_6)}.cls-8{filter:url(#Path_5)}.cls-9{filter:url(#Path_4)}.cls-10{filter:url(#Path_3)}.cls-11{filter:url(#Path_2)}.cls-12{filter:url(#Path_1)}
        </style>
        <filter id="Path_1" width="24.257" height="27.315" x="29.483" y="6.128" filterUnits="userSpaceOnUse">
            <feOffset dy="3"/>
            <feGaussianBlur result="blur" stdDeviation="2.5"/>
            <feFlood flood-opacity=".251"/>
            <feComposite in2="blur" operator="in"/>
            <feComposite in="SourceGraphic"/>
        </filter>
        <filter id="Path_2" width="24.693" height="27.357" x="41.665" y="6.128" filterUnits="userSpaceOnUse">
            <feOffset dy="3"/>
            <feGaussianBlur result="blur-2" stdDeviation="2.5"/>
            <feFlood flood-opacity=".251"/>
            <feComposite in2="blur-2" operator="in"/>
            <feComposite in="SourceGraphic"/>
        </filter>
        <filter id="Path_3" width="28.088" height="27.549" x="53.788" y="5.894" filterUnits="userSpaceOnUse">
            <feOffset dy="3"/>
            <feGaussianBlur result="blur-3" stdDeviation="2.5"/>
            <feFlood flood-opacity=".251"/>
            <feComposite in2="blur-3" operator="in"/>
            <feComposite in="SourceGraphic"/>
        </filter>
        <filter id="Path_4" width="25.648" height="27.315" x="68.468" y="6.129" filterUnits="userSpaceOnUse">
            <feOffset dy="3"/>
            <feGaussianBlur result="blur-4" stdDeviation="2.5"/>
            <feFlood flood-opacity=".251"/>
            <feComposite in2="blur-4" operator="in"/>
            <feComposite in="SourceGraphic"/>
        </filter>
        <filter id="Path_5" width="28.088" height="27.549" x="80.698" y="5.894" filterUnits="userSpaceOnUse">
            <feOffset dy="3"/>
            <feGaussianBlur result="blur-5" stdDeviation="2.5"/>
            <feFlood flood-opacity=".251"/>
            <feComposite in2="blur-5" operator="in"/>
            <feComposite in="SourceGraphic"/>
        </filter>
        <filter id="Path_6" width="23.167" height="27.316" x="96.794" y="6.128" filterUnits="userSpaceOnUse">
            <feOffset dy="3"/>
            <feGaussianBlur result="blur-6" stdDeviation="2.5"/>
            <feFlood flood-opacity=".251"/>
            <feComposite in2="blur-6" operator="in"/>
            <feComposite in="SourceGraphic"/>
        </filter>
        <filter id="Path_7" width="17.667" height="27.592" x="107.717" y="5.852" filterUnits="userSpaceOnUse">
            <feOffset dy="3"/>
            <feGaussianBlur result="blur-7" stdDeviation="2.5"/>
            <feFlood flood-opacity=".251"/>
            <feComposite in2="blur-7" operator="in"/>
            <feComposite in="SourceGraphic"/>
        </filter>
        <filter id="Path_8" width="24.684" height="27.356" x="114.026" y="6.128" filterUnits="userSpaceOnUse">
            <feOffset dy="3"/>
            <feGaussianBlur result="blur-8" stdDeviation="2.5"/>
            <feFlood flood-opacity=".251"/>
            <feComposite in2="blur-8" operator="in"/>
            <feComposite in="SourceGraphic"/>
        </filter>
        <filter id="Path_9" width="23.57" height="27.083" x="127.092" y="6.128" filterUnits="userSpaceOnUse">
            <feOffset dy="3"/>
            <feGaussianBlur result="blur-9" stdDeviation="2.5"/>
            <feFlood flood-opacity=".251"/>
            <feComposite in2="blur-9" operator="in"/>
            <feComposite in="SourceGraphic"/>
        </filter>
        <linearGradient id="linear-gradient" x1=".275" x2=".724" y1=".945" y2=".053" gradientUnits="objectBoundingBox">
            <stop offset="0" stop-color="#f54703"/>
            <stop offset="1" stop-color="#fac902"/>
        </linearGradient>
    </defs>
    <g id="Logo_Protofire" data-name="Logo Protofire" transform="translate(4.978 .012)">
        <g class="cls-12" transform="translate(-4.98 -.01)">
            <path id="Path_1-2" d="M173.09 101.832a1.3 1.3 0 0 1-1.333-1.35v-9.614a1.307 1.307 0 0 1 1.35-1.35h3.319c2.749 0 4.586 1.628 4.586 4.053s-1.889 4.073-4.586 4.073h-2.006v2.838a1.3 1.3 0 0 1-1.33 1.35zm1.333-6.426h2.027a1.825 1.825 0 1 0 0-3.649h-2.027z" class="cls-1" data-name="Path 1" transform="translate(-134.77 -78.89)"/>
        </g>
        <g class="cls-11" transform="translate(-4.98 -.01)">
            <path id="Path_2-2" d="M222.712 101.831a1.37 1.37 0 0 1-1.212-.682l-2.339-3.508h-2.241v2.838a1.333 1.333 0 1 1-2.663 0v-9.612a1.307 1.307 0 0 1 1.359-1.35h3.319c2.749 0 4.586 1.622 4.586 4.033a3.85 3.85 0 0 1-1.582 3.19l-.261.192 1.866 2.637a1.94 1.94 0 0 1 .4 1.083 1.238 1.238 0 0 1-1.232 1.179zm-5.79-6.426h2.027a1.825 1.825 0 1 0 0-3.649h-2.027z" class="cls-1" data-name="Path 2" transform="translate(-165.09 -78.89)"/>
        </g>
        <g class="cls-10" transform="translate(-4.98 -.01)">
            <path id="Path_3-2" d="M263.074 101.249a6.281 6.281 0 1 1 6.564-6.275 6.334 6.334 0 0 1-6.564 6.275zm.02-10.153a3.882 3.882 0 1 0 3.8 3.881 3.678 3.678 0 0 0-3.8-3.877z" class="cls-1" data-name="Path 3" transform="translate(-195.26 -78.31)"/>
        </g>
        <g class="cls-9" transform="translate(-4.98 -.01)">
            <path id="Path_4-2" d="M313.084 101.834a1.3 1.3 0 0 1-1.333-1.35v-8.628h-2.818a1.168 1.168 0 1 1 0-2.336h8.313a1.168 1.168 0 1 1 0 2.336h-2.821v8.628a1.3 1.3 0 0 1-1.341 1.35z" class="cls-1" data-name="Path 4" transform="translate(-231.8 -78.89)"/>
        </g>
        <g class="cls-8" transform="translate(-4.98 -.01)">
            <path id="Path_5-2" d="M356.954 101.249a6.281 6.281 0 1 1 6.564-6.275 6.334 6.334 0 0 1-6.564 6.275zm.02-10.153a3.882 3.882 0 1 0 3.8 3.881 3.678 3.678 0 0 0-3.8-3.877z" class="cls-1" data-name="Path 5" transform="translate(-262.23 -78.31)"/>
        </g>
        <g class="cls-7" transform="translate(-4.98 -.01)">
            <path id="Path_6-2" d="M407.919 101.832a1.284 1.284 0 0 1-1.333-1.35v-9.614a1.307 1.307 0 0 1 1.35-1.35h5.647a1.168 1.168 0 1 1 0 2.336h-4.334v3.09h3.319a1.168 1.168 0 1 1 0 2.336h-3.319v3.2a1.284 1.284 0 0 1-1.33 1.347z" class="cls-1" data-name="Path 6" transform="translate(-302.29 -78.89)"/>
        </g>
        <g class="cls-6" transform="translate(-4.98 -.01)">
            <path id="Path_7-2" d="M446.029 101.145A1.284 1.284 0 0 1 444.7 99.8v-9.851a1.333 1.333 0 1 1 2.663 0v9.843a1.284 1.284 0 0 1-1.33 1.353z" class="cls-1" data-name="Path 7" transform="translate(-329.48 -78.2)"/>
        </g>
        <g class="cls-5" transform="translate(-4.98 -.01)">
            <path id="Path_8-2" d="M475.165 101.832a1.37 1.37 0 0 1-1.21-.682l-2.339-3.508h-2.247v2.838a1.333 1.333 0 1 1-2.663 0v-9.612a1.307 1.307 0 0 1 1.35-1.35h3.319c2.749 0 4.586 1.622 4.586 4.033a3.849 3.849 0 0 1-1.582 3.19l-.261.192 1.866 2.637a1.941 1.941 0 0 1 .4 1.083 1.238 1.238 0 0 1-1.219 1.179zm-5.8-6.426h2.035a1.825 1.825 0 1 0 0-3.649h-2.027z" class="cls-1" data-name="Path 8" transform="translate(-345.18 -78.89)"/>
        </g>
        <g class="cls-4" transform="translate(-4.98 -.01)">
            <path id="Path_9-2" d="M513.638 101.6a1.307 1.307 0 0 1-1.35-1.35v-9.382a1.307 1.307 0 0 1 1.35-1.35h5.819a1.168 1.168 0 0 1 0 2.336h-4.517v2.413h3a1.062 1.062 0 0 1 0 2.124h-3v2.866h4.75a1.168 1.168 0 1 1 0 2.336z" class="cls-1" data-name="Path 9" transform="translate(-377.7 -78.89)"/>
        </g>
        <circle id="Ellipse_1" cx="4.148" cy="4.148" r="4.148" class="cls-2" data-name="Ellipse 1" transform="rotate(-63.09 22.95 19.672)"/>
        <path id="Path_10" d="M49.286 59.192a12.646 12.646 0 0 0 2.505 15 1.147 1.147 0 0 0 1.591-.017 6.223 6.223 0 0 0 1.4-6.716 6.22 6.22 0 1 1 7.162 3.641 6.223 6.223 0 0 0-4.606 5.082 1.147 1.147 0 0 0 .926 1.3 12.644 12.644 0 0 0 7.891-23.757 12.845 12.845 0 0 0-16.869 5.467z" class="cls-3" data-name="Path 10" transform="translate(-51.366 -52.45)"/>
    </g>
</svg>
