<svg xmlns="http://www.w3.org/2000/svg" width="143.162" height="35" viewBox="0 0 143.162 35">
    <defs>
        <style>
            .cls-1{fill:#131f3e}.cls-2{fill:#f54703}.cls-3{fill:url(#linear-gradient)}
        </style>
        <linearGradient id="linear-gradient" x1=".275" x2=".724" y1=".945" y2=".053" gradientUnits="objectBoundingBox">
            <stop offset="0" stop-color="#f54703"/>
            <stop offset="1" stop-color="#fac902"/>
        </linearGradient>
    </defs>
    <g id="Logo_Protofire" data-name="Logo Protofire" transform="translate(4.978 .012)">
        <path id="Path_1" d="M173.09 101.832a1.3 1.3 0 0 1-1.333-1.35v-9.614a1.307 1.307 0 0 1 1.35-1.35h3.319c2.749 0 4.586 1.628 4.586 4.053s-1.889 4.073-4.586 4.073h-2.006v2.838a1.3 1.3 0 0 1-1.33 1.35zm1.333-6.426h2.027a1.825 1.825 0 1 0 0-3.649h-2.027z" class="cls-1" data-name="Path 1" transform="translate(-139.751 -78.901)"/>
        <path id="Path_2" d="M222.712 101.831a1.37 1.37 0 0 1-1.212-.682l-2.339-3.508h-2.241v2.838a1.333 1.333 0 1 1-2.663 0v-9.612a1.307 1.307 0 0 1 1.359-1.35h3.319c2.749 0 4.586 1.622 4.586 4.033a3.85 3.85 0 0 1-1.582 3.19l-.261.192 1.866 2.637a1.94 1.94 0 0 1 .4 1.083 1.238 1.238 0 0 1-1.232 1.179zm-5.79-6.426h2.027a1.825 1.825 0 1 0 0-3.649h-2.027z" class="cls-1" data-name="Path 2" transform="translate(-170.068 -78.9)"/>
        <path id="Path_3" d="M263.074 101.249a6.281 6.281 0 1 1 6.564-6.275 6.334 6.334 0 0 1-6.564 6.275zm.02-10.153a3.882 3.882 0 1 0 3.8 3.881 3.678 3.678 0 0 0-3.8-3.877z" class="cls-1" data-name="Path 3" transform="translate(-200.239 -78.318)"/>
        <path id="Path_4" d="M313.084 101.834a1.3 1.3 0 0 1-1.333-1.35v-8.628h-2.818a1.168 1.168 0 1 1 0-2.336h8.313a1.168 1.168 0 1 1 0 2.336h-2.821v8.628a1.3 1.3 0 0 1-1.341 1.35z" class="cls-1" data-name="Path 4" transform="translate(-236.774 -78.903)"/>
        <path id="Path_5" d="M356.954 101.249a6.281 6.281 0 1 1 6.564-6.275 6.334 6.334 0 0 1-6.564 6.275zm.02-10.153a3.882 3.882 0 1 0 3.8 3.881 3.678 3.678 0 0 0-3.8-3.877z" class="cls-1" data-name="Path 5" transform="translate(-267.21 -78.318)"/>
        <path id="Path_6" d="M407.919 101.832a1.284 1.284 0 0 1-1.333-1.35v-9.614a1.307 1.307 0 0 1 1.35-1.35h5.647a1.168 1.168 0 1 1 0 2.336h-4.334v3.09h3.319a1.168 1.168 0 1 1 0 2.336h-3.319v3.2a1.284 1.284 0 0 1-1.33 1.347z" class="cls-1" data-name="Path 6" transform="translate(-307.268 -78.901)"/>
        <path id="Path_7" d="M446.029 101.145A1.284 1.284 0 0 1 444.7 99.8v-9.851a1.333 1.333 0 1 1 2.663 0v9.843a1.284 1.284 0 0 1-1.33 1.353z" class="cls-1" data-name="Path 7" transform="translate(-334.454 -78.214)"/>
        <path id="Path_8" d="M475.165 101.832a1.37 1.37 0 0 1-1.21-.682l-2.339-3.508h-2.247v2.838a1.333 1.333 0 1 1-2.663 0v-9.612a1.307 1.307 0 0 1 1.35-1.35h3.319c2.749 0 4.586 1.622 4.586 4.033a3.849 3.849 0 0 1-1.582 3.19l-.261.192 1.866 2.637a1.941 1.941 0 0 1 .4 1.083 1.238 1.238 0 0 1-1.219 1.179zm-5.8-6.426h2.035a1.825 1.825 0 1 0 0-3.649h-2.027z" class="cls-1" data-name="Path 8" transform="translate(-350.156 -78.901)"/>
        <path id="Path_9" d="M513.638 101.6a1.307 1.307 0 0 1-1.35-1.35v-9.382a1.307 1.307 0 0 1 1.35-1.35h5.819a1.168 1.168 0 0 1 0 2.336h-4.517v2.413h3a1.062 1.062 0 0 1 0 2.124h-3v2.866h4.75a1.168 1.168 0 1 1 0 2.336z" class="cls-1" data-name="Path 9" transform="translate(-382.673 -78.901)"/>
        <circle id="Ellipse_1" cx="4.148" cy="4.148" r="4.148" class="cls-2" data-name="Ellipse 1" transform="rotate(-63.09 22.95 19.672)"/>
        <path id="Path_10" d="M49.286 59.192a12.646 12.646 0 0 0 2.505 15 1.147 1.147 0 0 0 1.591-.017 6.223 6.223 0 0 0 1.4-6.716 6.22 6.22 0 1 1 7.162 3.641 6.223 6.223 0 0 0-4.606 5.082 1.147 1.147 0 0 0 .926 1.3 12.644 12.644 0 0 0 7.891-23.757 12.845 12.845 0 0 0-16.869 5.467z" class="cls-3" data-name="Path 10" transform="translate(-51.366 -52.45)"/>
    </g>
</svg>
